# xmcd
#
# Track frame offsets:
#	150
#	16675
#	33044
#	48301
#	57962
#	69249
#	76786
#	87809
#	103886
#	120027
#	136941
#	149807
#	161671
#	177710
#
# Disc length: 2469 seconds
#
# Revision: 1
# Processed by: cddbd v1.5.2PL0 Copyright (c) Steve Scherf et al.
# Submitted via: audiograbber 1.83.01
#
DISCID=ae09a30e
DTITLE=Various Artist - Den Ultimate Vise Samlingen - CD3
DYEAR=2006
DGENRE=
TTITLE0=Pettersen - Elskov
TTITLE1=Merethe - Æ gir dæ min vår
TTITLE2=Stein Ove Berg - La meg dra dit igjen
TTITLE3=Anita Skorgan - Vuggevise
TTITLE4=Rune Larsen and Tor Endresen - Deyndige små mus
TTITLE5=Stein Ove Berg - Den siste visa
TTITLE6=Vidar Sandbeck - Den vakre visa
TTITLE7=Håkon Banken - En liten fiskehavn
TTITLE8=Anne Lise Gjøstøl and Göran Fristorp - Brei dine vide vinger
TTITLE9=Henning Fries - Engle-hund
TTITLE10=Hendrik Dahl - En deilig dag
TTITLE11=Benny Borg - Vennene
TTITLE12=Stein Ove Berg - Hvilken vei
TTITLE13=Evert Taube - Portugise
EXTD=
EXTT0=
EXTT1=
EXTT2=
EXTT3=
EXTT4=
EXTT5=
EXTT6=
EXTT7=
EXTT8=
EXTT9=
EXTT10=
EXTT11=
EXTT12=
EXTT13=
PLAYORDER=
